# xmcd
#
# Track frame offsets:
#	150
#	2897
#	17332
#	31142
#	53412
#	65767
#	77850
#	90792
#	102162
#	122822
#	136715
#	150817
#	168957
#	181507
#	195317
#	214807
#	228190
#	240910
#	260455
#
# Disc length: 3610
#
# Revision: 1
# Processed by: cddbd v1.5.1PL0 Copyright (c) Steve Scherf et al.
# Submitted via: CDex 1.40Release
# Normalized: r0:DSETVAR1
#
DISCID=cd0e1813
DTITLE=Various Artist - Naked Nashville
DYEAR=1900
DGENRE=Country
TTITLE0=Dale Watson - Good Luck 'N' Good Truckin' Tonite
TTITLE1=Mindy McCready - Guys Do It All The Time
TTITLE2=George Strait - Easy Come, Easy Go
TTITLE3=Reba McEntire - Fancy
TTITLE4=Dale Watson - Honkiest Tonkiest Beer Joint
TTITLE5=Tammy Wynette - Stand By Your Man
TTITLE6=Willie Nelson - Crazy
TTITLE7=Tim McGraw - It Don't Get Any Countrier Than This
TTITLE8=Matraca Berg - The Resurrection
TTITLE9=Ricky Skaggs - Rank Stranger To Me
TTITLE10=Lorrie Morgan - Shakin' Things Up
TTITLE11=Keith Harling - Papa Bear
TTITLE12=Trisha Yearwood - Wrong Side Of Memphis
TTITLE13=Willie Nelson - My Heroes Have Always Been Cowboys
TTITLE14=Matraca Berg - Strawberry Wine
TTITLE15=Ray Price - Heartaches By The Number
TTITLE16=Patsy Cline - I Fall To Pieces
TTITLE17=Kris Kristofferson - Me And Bobby McGhee
TTITLE18=Dale Watson - Good Luck 'N' Good Truckin' Tonite
EXTD=ID3G: 2
EXTT0=
EXTT1=
EXTT2=
EXTT3=
EXTT4=
EXTT5=
EXTT6=
EXTT7=
EXTT8=
EXTT9=
EXTT10=
EXTT11=
EXTT12=
EXTT13=
EXTT14=
EXTT15=
EXTT16=
EXTT17=
EXTT18=
PLAYORDER=
